<?xml version="1.0" encoding="utf-8"?>
<!-- Generator: Adobe Illustrator 27.9.0, SVG Export Plug-In . SVG Version: 6.00 Build 0)  -->
<svg version="1.1" xmlns="http://www.w3.org/2000/svg" xmlns:xlink="http://www.w3.org/1999/xlink" x="0px" y="0px"
	 viewBox="0 0 680 400" style="enable-background:new 0 0 680 400;" xml:space="preserve">
<style type="text/css">
	.st0{fill:#FFFFFF;}
	.st1{fill:#06A595;}
</style>
<g id="Info">
</g>
<g id="Logo-02">
</g>
<g id="Logo-01">
</g>
<g id="HQ">
	<rect x="-5.2" y="-9.3" class="st1" width="690.4" height="418.6"/>
	<g>
		<g>
			<path class="st0" d="M146,71.1c0,0.3-0.7,0.7-1,0.3l-3.1-2.4c-0.7-0.7-1.4-1.4-1.7-2.1l-1.7-2.1c-1.7-2.4-3.8-3.8-6.6-4.2
				c-3.1-0.3-6.3-0.7-9.8-0.3h-4.5c-0.7,0-1,1-0.7,1.4c0,0.3,0.3,0.3,0.3,0.7c1.4,1.7,1,3.5,0.3,5.2c-2.1,3.8-3.8,8-5.6,11.9
				l-5.2,10.8c-2.8,6.3-5.2,12.2-8,18.5c-2.8,7-5.9,13.6-8.7,20.6c-2.8,7-5.2,13.9-8,20.9l-5.2,15.7c-2.1,5.9-3.8,11.9-5.9,17.4
				c-1,3.5-1.7,7-2.8,10.5l-2.4,8.7c-1.4,5.6-2.8,11.2-3.5,17.1l-1,4.9c-0.7,5.2-1,10.5-1,16v0.3c0.3,0.3,0.3,0.7,0.7,0.7h1.7
				c5.6-1.4,10.8-1.4,16.4-0.7c4.5,0.7,8.4,2.1,12.2,4.2l1,0.7c1.7,1.7,3.5,3.5,4.9,5.6c0,0.7,0.3,1,0.7,1.4c1,2.1,0.3,4.2-1,5.6
				c-0.3,0.3-0.7,0.7-1,0.3c-1.4-1-3.1-1.4-4.5-1.7c-1.7-0.7-3.1-1-4.2-2.4c-1.4-2.1-3.5-2.1-5.9-2.1h-0.7c-2.8,1-5.9,1.4-8.7,2.8
				c-3.5,1.4-6.6,2.4-9.8,4.2c-1,0.7-1.7,1-1.7,2.1c0,0.3-0.3,0.7-1,0.7c-1.4-0.3-2.4,0-3.8,0.7c-2.4,1.4-4.9,2.4-7.3,4.2
				c-1.4,1-3.1,1.7-4.9,2.8c-1,0.7-2.8,1.4-4.2,2.1c-0.7,0.3-1.7,0.3-2.8,0.3c-1.4,0-2.8-0.3-3.8-0.3l-3.8-1c-1,0-2.1,0-3.1-0.7
				c-0.7-0.3-0.7-1.4-1.7-1.4l-2.1-1c-1-0.3-1.7-2.1-1-3.1c0.3-1,0.7-1.7,1.4-2.4c0.7-0.7,1.4-1.7,2.4-2.1
				c5.2-3.8,10.5-7.3,16.4-10.1c0.3-0.3,0.7-0.3,0.7-0.7c0.3-0.3,0.7-0.7,0.3-0.7c0-1-0.3-1.7-0.7-2.4c-1.4-3.1-2.1-6.6-2.1-10.1
				c0-4.2,0-8.7,0.3-12.9c0.3-5.2,1-10.5,2.4-15.3c0.7-4.2,1.7-8,2.4-11.9c1.4-4.5,2.4-9.4,3.8-13.9c1.4-5.2,3.1-10.1,4.9-15.3
				c3.1-9.8,6.3-19.5,10.1-28.9c4.2-10.8,8.4-22,13.2-32.4c2.8-5.9,5.2-11.9,7.7-17.4L94,65.5c0,0,0.3-0.3,0.3-0.7
				c0-0.3-0.3-0.7-0.3-0.7c-0.3,0-0.7,0-1,0.3c-2.1,0.3-4.2,0.7-5.9,1.4c-4.9,1.4-9.8,2.8-14.6,4.5c-1.7,0.7-3.8,1-5.6,1
				c-0.7,0.3-1.4,0-2.1-0.3l-1.4-1c-1-0.7-1.7-1.4-2.8-2.1c-1-0.3-1.4-1.4-2.4-2.1c-0.3-0.3-1-0.7-1-1.4c0-1-0.7-1.7-1.4-2.8
				c-0.7-0.7-0.7-2.1,0-2.8c0.7-0.7,1.4-1,2.1-1.4c1-0.7,2.4-1.4,3.5-1.7c6.6-2.1,12.9-4.2,19.2-5.6c4.2-1,8-2.1,12.2-2.4l7.3-1
				c2.8-0.3,5.9-0.7,8.7-0.3c4.5-0.7,8.7,0.3,12.9,0.7c2.8,0.3,5.6,1.4,8,2.8c3.8,1.4,7.3,3.5,10.5,6.6c3.1,3.1,4.9,7,5.9,11.2
				C146.3,68.7,146.3,70,146,71.1z M51.1,191.7c0-0.3,0-0.3-0.3,0v0.3c0,0,0,0.3,0.3,0.7c-0.7,0-1,0-1,0.7c-0.3,0.3-0.3,0.7-0.3,1
				c-0.3,0.7-0.3,1.7-0.7,2.4c0,0.3,0,0.7-0.3,1c0,0.3,0,0.3,0.3,0.3V198c0-0.3,0-0.7,0-1c0.3-0.3,0.7-0.7,0.7-1.7v-0.7
				c0.3-0.3,0.7-0.3,0.7-0.7l0.7-1V191.7z M51.8,187.9c0,0,0-0.3-0.3-0.7v1v0.3C51.8,188.6,51.8,188.3,51.8,187.9z M52.9,185.5
				c-0.7,0.3-1,0.7-1,1v0.7c0.3-0.3,0.7-0.7,0.7-1C52.5,185.8,52.9,185.8,52.9,185.5z M53.6,181.6l-0.3,0.3v0.3h0.3V182V181.6z
				 M55.6,175.7c0,0,0-0.3-0.3-0.3c-0.7,0.7-0.7,1.7-1,2.4v0.3c0,0.3,0,0.7,0,1c0.3-0.3,0.7-0.7,0.7-1
				C55.3,177.4,55.3,176.7,55.6,175.7z M57.7,167.3c0.3,0,0.7-0.3,0.7-0.7v-1C57.7,165.9,57.7,166.6,57.7,167.3
				c-0.3,0.7-0.7,1.4-0.7,2.1c-0.3,0.7-0.7,1.4-0.3,2.1c-0.7,0-0.7,0.7-0.7,1v0.3c0.3,0,0.3,0,0.7-0.3v-1c0.7-0.7,0.7-1.4,0.3-2.1
				c0.7,0,0.7-0.3,0.7-0.7V167.3z M56.3,212.3c-0.3,0.3-0.3,0.3-0.3,0.3c0,0.3,0,0.3,0.3,0.7v-0.7V212.3z M57.4,208.8
				c-0.3,0-0.7,0.3-0.7,1l0.3,0.3v-0.3C57.4,209.5,57.4,209.2,57.4,208.8z M57.7,207.4c0-0.3,0-0.3-0.3-0.3c-0.3,0.7,0,1,0,1.4
				C57.7,208.1,57.7,207.8,57.7,207.4z M108.6,70.4l-1,1c-2.1,4.2-4.2,8.4-5.9,12.9L94.4,100c-1.7,3.8-3.1,7.7-4.9,11.2l-5.2,13.3
				c-1.7,3.8-3.1,7.7-4.9,11.5l-3.1,8.7c-1,2.8-2.1,5.9-3.1,8.7l-5.2,15.7c-1,2.8-2.1,5.6-2.8,8.4c-1,4.2-2.4,8.7-3.8,12.9
				l-3.1,12.2c0,0.3,0,0.7,0,1.4h0.3c0.3-0.7,0.7-1.4,0.7-2.1c1-3.1,1.7-5.9,2.4-8.7l6.3-21.3c1-2.4,1.7-4.9,2.4-7.3
				c3.1-8.7,6.3-17.4,9.8-26.2c2.1-5.9,4.5-11.5,6.6-17.1c1.4-3.5,3.1-7,4.5-10.1l6.3-15c1.7-4.2,3.8-8.4,5.6-12.6l3.8-8
				c0.3-1,0.7-2.4,1.4-3.5C108.6,71.4,109,71.1,108.6,70.4z M58.4,165.2c1,0,0.7-0.7,1-1.4C58.4,163.8,58.4,164.5,58.4,165.2z
				 M59.5,163.5c0-0.3,0.3-0.7,0.3-1c0.3,0,0.3-0.3,0.3-0.3C59.8,162.4,59.1,162.8,59.5,163.5z M60.5,162.1v-1.4c0-0.3,0-1,0-1.4
				c0.3,0,0.7,0,0.7-0.3c1-2.8,2.1-5.6,2.8-8.4h-0.7c-1,2.8-1.7,5.6-2.8,8v0.7C59.8,160.4,60.2,161.1,60.5,162.1z M61.6,171.9
				c0,0,0,0.3-0.3,0.7h0.3c0,0.3,0.3,0,0.3,0c0-0.3,0.3-0.3,0.3-0.3S61.9,171.9,61.6,171.9z M62.3,171.2v-0.3
				C61.9,170.8,61.9,171.2,62.3,171.2z M63.3,166.6L63,167h0.7c0-0.3,0-0.3,0-0.3v-0.3L63.3,166.6z M64,148.8c0,0.7,0,1,0.3,1.4
				l2.1-5.6c0-0.7,0.3-1.4,0-2.1c0.7,0,0.7-0.3,1-0.7l6.3-16.7c0.3-0.3,0.3-0.7,0.3-1c0.7-1,1-2.1,1-3.1v-0.3c-0.7,1-1.4,2.1-1,3.5
				c-1,0-1,1-1,1.4l-6.3,15.7c0,0.3-0.3,1-0.3,1.4C65.4,144.7,64.7,146.8,64,148.8z M65.8,159c-0.3,0.3-0.3,0.7-0.3,1
				c0,0.3,0,0.3,0.3,0.3V160C65.8,159.7,65.8,159.3,65.8,159c0.7,0,0.7-0.7,1-1C66.1,157.9,66.1,158.6,65.8,159z M67.5,154.8
				c0,0,0,0,0,0.3l0.3-0.3H67.5z M68.2,152.3v0.3c0.3,0,0.3-0.3,0.3-0.3H68.2z M69.6,149.9v0.7c-0.7,0.3-1,0.7-0.7,1.4
				c0-0.3,0.3-0.7,0.7-1.4c0.3-0.7,0.3-1.4,0.3-2.1C69.6,148.8,69.2,149.2,69.6,149.9z M70.3,148.2c0-0.3,0.3-1,0.3-1.7
				C69.9,147.1,69.9,147.5,70.3,148.2z M73.1,139.4c-0.3,1-1,1.7-1,3.1l-0.7,0.7c0,0.3-0.3,0.7-0.3,1c0.7-0.3,1-0.7,1-1.7
				C72.7,141.5,73.4,140.5,73.1,139.4z M75.2,134.2c-1,1.4-1.4,3.1-1.7,4.9c0.7-0.3,0.7-1,1-1.7C74.8,136.3,75.5,135.3,75.2,134.2z
				 M75.2,120.3h0.3c0.3-0.7,0.7-1,1-1.7l5.2-12.2c2.1-4.5,4.2-9.4,6.3-13.9c2.8-6.6,5.9-13.2,8.7-19.9l1-2.1c0-0.3,0-0.7,0-1
				c-1,2.4-2.4,4.5-3.5,7c-3.5,7-6.6,13.9-9.8,21.3l-2.1,4.5c-1.7,4.5-3.8,9.4-5.9,14.3C76.2,117.8,75.5,119.2,75.2,120.3z
				 M75.9,133.9c0.3-1.7,1.4-3.1,1.4-4.9c0,0-0.3,0-0.3,0.3c-0.7,1.4-1.4,2.8-1.7,4.5H75.9z M77.3,128.6c0.7-0.3,0.7-0.7,0.7-1.4
				C77.6,127.6,77.3,128.3,77.3,128.6z M78,126.9c0.7,0,0.7-0.7,0.7-1.4C78,125.8,78,126.5,78,126.9z M78.7,125.1
				c0.3,0,0.7-0.3,0.7-0.3C79,124.8,78.7,124.8,78.7,125.1z M79.7,124.1v-0.3c0,0,0-0.3-0.3,0L79.7,124.1z M81.5,116.8
				c0.7-0.3,1,0,1.4-0.7l1-2.1c0-0.3,0-1,0-1.7c0.3,0,0.7,0,0.7-0.3c1.4-2.1,2.4-4.5,2.8-7c-1,0.7-1.4,2.1-1.7,3.1
				c-0.7,1.4-1.4,2.8-1.7,4.2C83.2,114,82.8,115.4,81.5,116.8c0.3,1-0.3,1.7-0.7,2.4c0,0.3,0,0.3,0.3,0.7l0.3-0.3
				C82.1,118.5,82.1,117.8,81.5,116.8z M90.2,97.6c-1,1.7-2.1,3.8-2.8,5.9v1c0.3-0.3,0.7-0.3,0.7-0.7c0.7-1.7,1.7-3.1,2.4-4.9
				c0-0.7,0-1,0.3-1.4H90.2z M90.9,97.2c0.3-0.3,0.3-0.7,0.3-1.4C90.9,96.2,90.5,96.5,90.9,97.2z M91.6,95.5
				c0.3-0.3,0.3-0.7,0.3-1.4C91.6,94.5,91.6,95.2,91.6,95.5z M92.6,92.4c0.3,0,0.7-0.3,0.7-0.3c1-2.1,2.4-4.2,2.8-6.6
				c-1.4,1-1.4,2.8-2.4,4.2C93.3,90.3,92.6,91.3,92.6,92.4c-0.3,0.3-0.7,1-0.3,1.4C92.6,93.4,93,93.1,92.6,92.4z M97.5,81.9
				c0,0.3,0.3,0.7,0.3,1h-1c0,0.3-0.3,0.7-0.7,1v1c0.3,0,0.7-0.3,0.7-0.7c0.3-0.3,0.7-0.7,1-1.4c0-0.7,0-1.4,0.3-2.4
				c0.3-0.3,0.3-0.7,0.3-1c0-0.3,0-0.7-0.3-1v2.1C97.5,80.9,97.5,81.6,97.5,81.9z M98.2,69c0.3,0,0.3-0.3,0.7-0.7
				C98.5,68.3,98.2,68.7,98.2,69z M98.9,68c0.3-0.7,0-1.4,0.3-2.1C98.9,66.6,98.9,67.3,98.9,68z M99.2,65.9c0.3,0,0.7,0,1-0.3
				c0.3-0.3,0.7-0.3,0.7-0.7C100.3,64.8,99.9,65.5,99.2,65.9z M101,74.9v0.7c-0.3,0-1,0.3-1.4,0.7c0,0.3,0,0.7-0.3,1
				c0.3,0,0.7,0,0.7-0.3c0.3-0.3,0.7-1,1.4-1.4C101,75.6,101,75.3,101,74.9z M101,64.5l0.7-1C101,63.8,101,64.1,101,64.5z
				 M109.7,69.7c-0.7,0-0.7,0-0.7,0.7C109.3,70.4,109.3,70,109.7,69.7z M109.7,67.6c0,0.7-0.3,1,0,1.7C110,68.7,110,68.3,109.7,67.6
				z"/>
			<path class="st0" d="M210.3,185.8c0,1.4-0.7,2.4-1.4,3.5l-4.2,8.4c-2.1,3.5-4.2,7.3-6.3,10.8c-1,2.1-2.4,3.8-3.8,5.9
				c-2.8,4.5-5.6,8.7-8.7,13.2c-2.4,4.2-5.2,8.7-8,12.9l-5.2,7c-1,1.4-2.4,2.8-3.8,3.8c-0.7,1-1.7,1.4-3.1,1c-1.7,0-3.1-0.3-4.9-0.3
				c-1.7-0.3-3.1-1.4-4.5-2.1c-1-1-1.7-2.1-2.1-3.5c-0.7-2.1-1.4-4.2-1.4-6.6c-0.3-3.5-0.3-6.6,0-10.1c1-8.4,3.1-16.4,5.6-24.4
				c2.4-9.8,6.3-19.5,9.4-28.9c1.4-4.2,3.1-8.4,4.5-12.9c0.3-0.7,0.3-1.7,0.7-2.8c0,0,0-0.3-0.3-0.3h-0.3c-0.7,0.7-1.7,1.4-2.4,2.1
				c-4.5,4.2-8.7,9.1-12.6,13.9c-2.4,3.5-4.9,7-7,10.8c-3.5,5.9-7,11.5-10.1,17.4c-2.1,3.1-3.5,6.3-5.2,9.8
				c-4.2,8.7-8,17.4-12.2,26.2l-3.1,6.6c-0.7,0.7-1,1.4-1.7,2.4c-2.4,3.1-3.1,3.1-7,2.8c-1.4,0-2.4-0.3-3.8-0.3
				c-1.7-0.3-3.1-1.4-4.5-2.4c-1-0.7-1.4-1.7-1.7-3.1l-1-5.9c-0.7-6.6-0.7-13.6,0.3-20.6l1-9.4c1-6.6,2.8-13.2,4.9-19.5
				c3.8-12.6,8-25.1,12.9-37c0.7-2.8,2.1-5.2,3.1-7.7c0.7-1,1.4-2.1,2.4-2.8c1-0.7,2.1-1,3.1-0.7c0.3,0.3,1,0.3,1.4,1
				c0.7,0.3,1,0,1.4,0c0.3-0.3,0.7-0.3,1,0c0,0,0.3,0.7,0.7,0.7c1-0.3,1.4,1,2.1,0.7c1,0,1.4,1.4,2.4,1c0,0,0.7,0.3,0.7,0.7
				c0,1,0.7,1.4,1.4,2.1c1,0.7,1.7,1.7,2.1,2.8c0.3,0.3,0.3,1,0.3,1.4c0.3,1.4,0,3.1-0.3,4.5l-6.3,17.4c-3.8,10.8-8,22-11.9,33.1
				c-2.1,6.3-3.8,12.6-5.9,19.2c-0.3,0.7-0.3,1.7-0.3,2.8c1-0.3,1-1.4,1.7-2.1c2.8-4.9,5.2-10.1,7.7-15.3
				c6.3-13.3,13.9-25.8,22-38.4c4.9-7.3,10.8-14.3,17.4-20.6c2.4-2.1,4.9-3.8,7.7-5.9c2.4-1.7,5.6-2.1,8.4-1.4
				c3.5,0.7,5.9,2.4,8,5.2c0.3,0.7,1,1.4,1.4,2.4c0.3,0.7,0.7,1.4,0.7,2.4c0.3,3.1,0.3,6.3-0.3,9.4c-1.4,8-3.8,15.3-5.9,22.7
				c-3.1,9.8-6.3,19.5-9.8,28.9c-1.7,5.9-3.8,11.5-5.6,17.1c-0.3,0.7-0.7,1.4-0.7,2.4h0.3c0.7-0.7,1.4-1.4,2.1-2.1
				c1.7-2.8,3.8-5.9,5.9-8.7l8.4-12.2c4.2-6.6,7.7-12.9,11.5-19.5c1.7-2.8,3.5-5.9,5.2-9.1c0-0.7,0.3-1,0.7-1.4
				c0.3-0.3,1-0.7,1.7-0.7c1.7,0,3.1,0.3,4.5,1C209.9,185.1,210.3,185.5,210.3,185.8z M107.8,205.3c0,0-0.3,0-0.3-0.3v0.3
				c0,0,0,0,0,0.3C107.4,205.3,107.4,205.3,107.8,205.3z M110.2,194.9c0,0.7-0.3,1-0.7,1.7C110.2,196.3,110.2,195.9,110.2,194.9z
				 M111.3,191.7v0.7c-0.3,0.7-0.7,1-1,2.1c1-0.3,0.7-1.4,1-2.1C111.3,192.1,111.6,192.1,111.3,191.7z M113,186.9l-0.7,1
				c0,0.3-0.3,0.7-0.3,1v0.3c0.3-0.3,0.3-0.3,0.3-0.3v-1C112.7,187.6,113,187.2,113,186.9z M112.3,205.7H112v0.3
				C112,206,112.3,206,112.3,205.7z M113.4,185.8v0.3C113.4,186.2,113.7,186.2,113.4,185.8z M113.7,199.4c0.3-0.3,0.7-1,1-1.4
				C114.1,198.4,114.1,199.1,113.7,199.4c0,0.3-0.3,0.3-0.3,0.7s0,0.3,0.3,0.3v-0.3V199.4z M120.3,197c1.7-4.5,3.1-9.1,4.9-13.6
				c0.7-1.7,1.4-3.1,1.4-4.9c0.7-0.7,0.7-1.4,0.7-2.1c0-0.3,0.3-0.3,0.3-0.3c0-0.3,0-0.3-0.3-0.7v0.3c0,0.3,0,0.3,0,0.7
				c-1,0.3-0.7,1-0.7,2.1c-0.3,0.7-1,1-1,1.7c-1,2.1-1.7,4.2-2.4,6.3c-2.4,6.6-4.5,12.9-6.6,19.5c-0.3,1-0.7,1.7-0.7,2.8
				c-0.7,2.1-1.4,4.5-1.7,6.6v0.7c0.3-0.3,0.3-0.3,0.3-0.3c0-0.3,0.3-0.7,0.3-1C116.8,208.8,118.6,202.9,120.3,197z M117.2,189.3
				c0,0,0.3,0,0.3-0.3v-0.3C117.2,188.9,117.2,188.9,117.2,189.3z M118.9,231.1c4.5-8,8.7-16,12.6-24.4c-1,0-1.4,0.7-2.1,1.7
				l-3.5,6.3c-2.1,4.2-4.2,8.4-6.3,12.9c-1,1.7-1.7,3.8-2.4,5.9C118.2,232.9,118.6,232.2,118.9,231.1z M120.3,237.8
				c0,0.3-0.3,0.3-0.3,1C120.3,238.5,120.3,238.1,120.3,237.8z M121.7,235c0,0.3-0.3,1-0.7,1.4C121.4,236,121.7,235.7,121.7,235z
				 M128.4,173.3v-0.3C128.4,172.9,128,172.9,128.4,173.3z M128.7,172.6c0.3-0.3,0.3-1,0.3-1.4C128.7,171.5,128.7,172.2,128.7,172.6
				z M129.4,170.5v0.3C129.4,170.8,129.7,170.8,129.4,170.5z M130.1,167.7c0.3,0.3,0.3,0,0.3-0.3c0,0,0-0.3,0.3-0.3v-0.3l-0.3,0.3
				c0,0,0,0.3-0.3,0.3V167.7z M132.9,161.1c0,0.3,0,0.3,0,0.3V161.1z M159,221.7c-0.3,0.3,0,0.7,0,0.3V221.7z M160.4,216.8
				c-0.3,0.3-0.3,0.3-0.3,0.7v0.3c0,0.3-0.3,0.7-0.3,0.7v0.3c0.3-0.3,0.3-0.7,0.3-1c0.3,0,0.3-0.3,0.3-0.3v-0.3V216.8z M161.1,213.4
				c-0.3,0-0.3,0.3-0.3,0.3s0.3,0,0.3,0.3V213.4z M162.5,208.1c1-0.3,0.7-1,1-2.1C162.9,206.4,162.9,207.4,162.5,208.1
				c-0.3,0.7-0.3,1.7-0.3,2.4c-0.7,0.7-0.7,1.4-1,2.4c1-0.7,0.7-1.7,1-2.4C162.5,209.9,162.5,209.2,162.5,208.1z M163.2,222.4
				c0,0.3-0.3,0.3-0.3,0.7c0.3,0,0.3-0.3,0.3-0.3V222.4z M178.9,188.9c0.7-2.1,1.7-3.8,1.7-6.3c-0.3,0.3-0.3,0.3-0.3,0.7
				c-1.4,3.8-3.1,8-4.2,11.9c-3.5,10.1-7,20.2-9.4,30.3l-0.7,2.8c-1,1.4-1,3.1-1.4,4.5l-0.7,2.8c0,0.3-0.3,0.7-0.3,0.7
				c0,0.3,0,0.3,0.3,0.7v-0.7c0-0.3,0-0.3,0-0.7c0.7-0.7,0.7-1.7,0.7-2.8c1-1.4,1.4-2.8,1.4-4.5c1-0.7,1-1.7,1.4-2.4L178.9,188.9z
				 M163.9,203.6c-0.3,0.7-0.3,1.4-0.3,2.1C163.9,205,163.9,204.3,163.9,203.6c0.7-0.3,0.7-1,1-1.7c0-0.7,0.3-1.4,0.3-2.1
				c-0.7,0.3-0.7,1.4-0.3,2.1C163.9,202.2,164.3,202.9,163.9,203.6z M163.6,220c0.3-0.3,0.3-0.3,0.7-0.3h-0.3
				C163.6,219.6,163.6,220,163.6,220z M167.8,206c-0.3,0.3-0.3,1-0.3,1.7c-0.7,0.7-0.7,1.4-0.7,2.1c-0.7,0.7-0.7,1.4-0.7,2.4
				c-0.3,0.7-0.7,1-0.7,1.7c-0.3,0.3-0.3,0.3-0.3,0.7v0.3l0.3-0.3v-0.7c0.7-0.3,0.7-1,0.7-1.7c0.7-0.7,0.7-1.7,0.7-2.4
				c0.7-0.7,0.3-1.4,0.7-2.1C168.1,207.1,168.1,206.7,167.8,206z M165.7,197.7c-0.3,0.7-0.3,1-0.3,1.7l0.7-1c1-2.8,1.7-5.6,2.8-8.4
				l0.7-2.8c-0.3,0-0.3,0.3-0.7,0.7L165.7,197.7z M169.2,201.8c-0.3,0.7-0.3,1-0.3,1.7c-0.7,0.3-0.7,1-0.7,1.7
				c0.7-0.7,0.7-1,0.7-1.7C169.2,202.9,169.5,202.5,169.2,201.8z M169.8,185.8c-0.3,0.3-0.3,0.7-0.3,1
				C169.8,186.5,169.8,186.2,169.8,185.8z M171.2,194.9c-0.7,2.1-1.7,4.2-1.7,6.3c0.3,0,0.3,0,0.3-0.3c0.7-2.1,1.4-3.8,1.7-5.6
				c0.3-0.3,0-0.3,0-0.7C171.6,194.9,171.2,194.9,171.2,194.9z M170.2,185.1l0.7-1c0-0.3,0-0.7,0.3-0.7V183l-0.3-0.3v0.7
				c0,0,0,0.3,0,0.7C170.2,184.4,170.2,184.8,170.2,185.1z M173.3,235.3c-0.7,0.3-1,1-1.4,1.7C172.6,236.7,173.3,236,173.3,235.3z
				 M172.3,178.5c0,0.3,0,0.3,0,0.7v-0.3V178.5z M172.3,192.1v0.3l0.3-0.3H172.3z M173,242.6l0.7-1c-0.3,0-0.7,0.3-1,0.7v0.3
				C173,242.6,173,243,173,242.6z M173,189.6c0,0,0.3,0,0.3,0.3v-0.3c0-0.3,0-0.3,0-0.3L173,189.6z M180,232.9c-1,0.3-1.7,1-2.4,2.1
				l-2.1,2.8l-0.3-0.3c0-0.3-0.3-0.3-0.3,0s0,0.3,0.3,0.3h0.3c-0.3,1-0.7,1.7-1,2.8C176.5,238.8,178.9,235.7,180,232.9z M181,182
				c0.7-1,0.7-2.1,1.4-3.5c0-0.7,0-1.7,0.3-2.4c0.7-0.7,0.3-1,0.7-2.1c-0.7,0.3-0.3,1.4-0.7,2.1c-0.7,0.7-0.7,1.7-0.3,2.4
				c-0.3,0.3-0.7,0.7-1,0.7C181,180.2,180.7,180.9,181,182z"/>
			<path class="st0" d="M293.1,187.9c-0.3,0.7-0.7,1-1,1.4l-17.4,25.1c-3.8,5.6-7.7,10.8-11.5,16.4c-3.8,5.9-8.7,11.2-13.6,16
				c-1.4,1.4-2.8,2.8-3.8,4.2c-2.1,2.1-4.2,4.2-6.6,6.3c-4.9,3.5-10.1,6.6-16,8.4c-3.8,1-8,1.4-12.6,0.7c-2.4-0.3-5.2-1-8-2.1
				c-4.2-1.4-8-3.8-11.2-7c-3.1-3.1-5.2-7-5.2-11.5c-0.3-5.2,0.7-10.1,3.5-14.3c1-2.1,2.8-3.5,4.5-4.9c1.4-1,3.1-1.4,4.9-1.4
				c0.7,0.3,1.4,0.3,2.1,0.3c2.8,0.7,4.9,2.4,6.6,4.9c0.3,0.3,0,0.7,0,1l-0.7,0.7c-2.4,2.1-4.2,4.5-5.2,7.3
				c-1.4,3.1-2.1,6.3-2.1,9.8c0,2.1,0.7,3.8,1.4,5.6c1,1.7,2.4,2.8,4.5,2.8c1.4,0.3,2.8,0,4.2-0.3c4.9-1,9.1-3.5,13.3-6.3
				c3.1-2.1,5.6-4.5,7.7-7.7c2.1-3.5,2.4-7.3,1-11.2c-0.3-1.7-1-3.1-1.7-4.5c-1.7-2.4-3.1-5.2-4.9-7.3c-2.8-3.8-5.6-7.3-8.7-11.2
				c-1-1.4-1.7-3.1-2.8-4.5c-1.4-1.7-2.8-3.5-3.8-5.2c-2.1-3.1-3.5-6.3-4.5-9.8c-1.4-5.9-1.7-11.5,0.7-17.4
				c2.4-6.3,6.3-11.9,11.2-16.7c4.2-4.5,9.8-8.4,15.7-11.2c2.1-1,4.5-1.7,6.6-2.4l1.7-0.7c2.4-1,5.2-1.4,8-1.7
				c3.1-0.3,6.6-0.3,9.8,0.7c0.3,0.3,0.3,0.3,0.7,0.3c4.5,1.7,7.7,4.9,9.1,9.1c0.3,1.4,0.7,2.4,0.3,3.5c-1,3.1-1.7,6.6-2.8,9.8
				c-2.1,6.6-4.9,13.2-7.3,19.5c-1.7,4.2-3.1,8.4-4.5,12.6c-0.7,1.4-1.4,2.8-2.1,3.8c-0.3,1-1.4,2.1-2.4,2.8c-0.3,0.3-1,0.3-1.4,0
				c-0.7-1-1.4-1-2.4-1.4l-1.4-1c-1-0.7-2.1-1.7-2.4-3.5c-0.3-1.7-0.3-3.5,0-5.2c0.7-2.4,1.4-4.5,2.4-7c2.1-6.6,4.5-12.9,6.6-19.5
				c1-3.5,2.1-7,2.8-10.8c0.3,0,0.3-0.7,0.3-0.7l-0.7-0.7c-0.7,0-1,0-1.7,0.3c-7,3.1-13.6,7-18.8,12.9c-3.8,4.2-7,8.7-8.7,14.3
				c-1.7,4.5-2.4,9.1-1,13.9c0.7,3.1,1.7,5.9,3.5,8.7c1.7,2.8,3.5,5.2,5.6,8l7.3,9.8c2.4,3.5,4.5,7.3,6.6,10.8
				c1,1.4,1.4,3.1,2.1,4.5c0,0.7,0,1,0.3,1.4c0,0.3,0.3,1,0.7,1c0.3,0.3,0.7-0.3,1-0.7l1.7-1.7c4.2-5.2,8-10.8,11.5-16.7
				c4.5-7.3,9.1-14.3,14.3-20.9c1.7-2.1,3.1-4.5,4.9-6.6l3.1-4.2c2.1-2.4,2.1-2.4,4.9-1c0.3,0,0.7,0.7,1,0.7
				C293.1,186.9,293.5,187.2,293.1,187.9z M199.3,235l-0.3,0.3c-0.3,0.3-0.3,0.7-0.3,1l0.7-1V235z M214.3,166.3l-0.7,1
				C214.3,167,214.3,166.6,214.3,166.3z M219.9,165.2c0,0.3-0.3,0.3-0.3,0.7l0.3-0.3V165.2z M221.6,170.8l1-0.7
				c1-1.4,1.7-2.8,2.8-4.2c0-0.3,0-0.7,0.3-1l0.7-0.7c-0.3,0-0.7,0.3-0.7,0.7C223.7,166.3,222.7,168.7,221.6,170.8
				c0,0.3-0.3,0.7-0.3,1C221.6,171.9,221.6,171.2,221.6,170.8z"/>
			<path class="st0" d="M356.4,136.6c-0.7,0.3-1.4,0.7-1.7,0.7c-1.7,0.3-3.8,0.3-5.6,0.3c-2.8-0.3-5.6,0-8.4,0c-3.1,0-6.6,0.7-9.8,1
				c-1.4,0-2.1,0.7-2.8,2.1c-0.3,1.7-1,3.8-1.7,5.6c-2.1,6.3-4.2,12.2-6.6,18.1l-5.2,15c-4.2,11.5-8.7,23-12.9,34.5
				c-3.1,8.4-5.9,17.1-8.4,25.5c-1.4,5.2-3.1,10.5-4.2,16c-0.3,0.7-0.3,1.4-0.3,2.1c0,0.3,0.3,0.3,0.3,0.3c0.3,0,0.7,0,0.7-0.3
				c0.7-0.3,1-0.7,1.4-1c5.9-5.9,11.2-12.2,15.7-19.2c2.4-3.8,5.2-7.7,7.7-11.9c1.4-1.7,2.4-3.5,3.5-5.6c4.9-9.4,10.5-18.5,16-27.5
				c1-1.7,1.7-3.1,2.8-4.5c0.3-0.7,0.7-1,1-1.4s0.7,0,0.7,0.3c-0.3,0.3-0.3,0.3-0.3,0.7c0-0.3,0.3-0.3,0.3-0.7
				c4.2,0.7,4.9,0.7,2.4,5.2c-3.8,6.3-7.7,12.6-11.5,19.2l-4.5,8.4c-6.3,12.6-13.2,24.4-20.9,35.9c-2.4,3.8-5.2,7.3-8.4,10.5
				c-0.7,0.7-1.4,1.4-2.4,2.1c-1.7,1.4-4.2,2.1-6.6,1.7c-1-0.3-2.1-0.3-3.1-0.3c-2.4-0.3-4.5-1.4-6.6-2.8c-1.7-1-2.4-2.4-3.1-4.2
				c-2.1-4.9-3.1-9.8-3.1-14.6c0-4.9,0.3-9.8,1-14.3c1-8,2.8-16,4.9-24.1c2.4-8.4,5.2-16.7,8.4-24.8c2.8-6.6,5.2-13.3,8-19.5
				c1.4-4.2,3.5-8.4,5.2-12.6c1-2.8,2.4-5.2,3.5-8c0.3-0.7,0.3-1,0.3-1.4c0.3-0.7,0-1-0.7-1c-1.4,0-2.4,0-3.8,0.3h-0.7
				c-3.8,1-7.3,0.3-10.8-1.7l-5.2-2.8c-1.4-0.7-2.8-1.4-3.1-3.1c-1-0.3-1-1.7-1.7-2.1c-1.7-1.4-1.4-3.5,0-4.5c0.7-0.3,1.7-1,3.1-1
				c1-0.3,2.4-0.3,3.8-0.7c3.1,0,6.6-0.3,9.8-0.7c1.7,0,3.5-0.3,5.2-0.3l11.2-1c0.7,0,1.4-0.3,1.7-1.4c2.1-4.5,3.8-9.1,5.9-13.9
				c2.8-6.6,5.9-13.2,8.7-19.9l2.8-5.2c0.3-0.7,1-1,1.4-1.7c1-0.7,1.7-1,2.8-0.3c1.7,0.7,3.8,1.4,5.2,2.4l1.4,1.4
				c1,1.7,1.7,3.5,2.4,5.2c0.7,1.7,0.7,3.5,0.3,5.2c-1,4.5-1.7,8.7-3.1,12.9c-1.4,4.2-2.4,8-3.5,11.9c-0.3,0.7-0.3,1-0.3,1.7
				c0,0,0,0.3,0.3,0.3c0.7,0.3,1.4,0.3,2.1,0.3c5.2,0,9.8,1.7,14.3,4.5c2.1,1,3.5,2.4,4.5,4.2l1,2.4
				C357.8,135.6,357.4,136.3,356.4,136.6z M277.6,231.8c-0.3,0.3-0.3,0.3-0.3,0.7v0.3c0.3-0.3,0.3-0.3,0.3-0.3V231.8z M281.8,215.1
				c2.1-7,4.5-13.6,7-20.6c1.4-4.2,3.1-8,4.5-12.2c0.3-1.4,1.4-2.8,1.4-4.5c-1,0.3-1,1-1.4,1.7c-1.7,5.2-3.8,10.1-5.6,15.3
				c-2.8,7-4.9,13.9-7,21.3c-0.7,2.8-1,5.6-1.7,8c-0.3,1-0.3,2.1-0.3,3.1c-0.7,0.3-0.7,0.7-0.7,1.4v0.3c0.3,0,0.3,0,0.3-0.3
				c0.3-0.3,0.3-1,0.3-1.4c0.3-1,0.3-2.1,0.3-3.1c0.7-0.3,0.7-0.7,0.7-1.4L281.8,215.1z M282.8,232.5c-0.3,0-0.3,0-0.3,0.3l0.3,0.3
				c-0.3,0.3-0.7,0.3-0.7,0.7v0.7c0-0.3,0.3-0.3,0.3-0.3c0-0.3,0-0.7,0.3-1v-0.3V232.5z M283.5,228.7c0.3-0.3,0.3-1,0.3-1.4
				c0.7-0.7,0.7-1.4,0.7-2.4c0,0,0.3-0.3,0.3-0.7v-0.7c0,0.3-0.3,0.3-0.3,0.7v0.7c-0.7,0.7-0.7,1.7-0.7,2.4
				c-0.7,0.3-0.7,0.7-0.7,1.4H283.5z M316.6,153.7c0.7-1.4,1-2.8,1.4-3.8c0,0-0.3,0-0.7,0.3l-1,2.1c-1,2.4-1.7,5.2-3.1,7.7
				c-2.4,5.2-3.8,10.8-6.3,16l-5.2,14.3c-0.3,0.7-0.7,1.4-1,2.4c-1.7,4.2-3.1,8.4-4.5,12.6c-2.1,5.2-3.8,10.5-5.2,15.7
				c-1.4,3.8-2.4,8-3.5,11.9c-1,4.9-2.4,9.8-3.1,14.6c0,0.7,0,1.4-0.3,1.7c0,0.3,0.3,0.3,0.3,0.7c0-0.3,0.3-0.7,0.3-0.7
				c0-0.7-0.3-1-0.3-1.7c0.3-0.3,0.7-0.7,0.7-1c0.7-2.1,1.4-4.2,1.7-6.3c2.1-7.3,3.8-14.6,6.6-22l5.2-15.7
				c2.1-5.2,3.8-10.5,5.9-15.7c2.4-6.3,4.5-12.9,7-19.2C313.5,163.1,314.9,158.3,316.6,153.7z M285.6,220.3V220
				C285.6,220.3,285.3,220.3,285.6,220.3z M296.4,188.3c1-1,1.4-1.7,1.4-3.1C297.1,185.8,296.4,186.9,296.4,188.3
				c-0.7,0.7-1,2.1-1.4,3.1c-0.3,0.7-0.3,1.4-0.3,2.4c-1.7,2.1-2.4,4.5-2.8,7v0.3c0,0-0.3,0-0.3,0.3c-1.4,3.1-2.4,6.3-3.5,9.1
				c0,1,0,1.7-0.3,2.4c-1,2.1-1.4,4.2-2.1,6.6c0.3-0.3,0.7-0.3,0.7-0.7c0.7-2.1,1.7-3.8,1.4-5.9c0.3-0.3,0.7-0.3,0.7-0.7l3.1-9.1
				c0.3-0.7,0.3-1.4,0.3-2.1c1.4-2.1,2.1-4.5,2.8-7.3c0.7-0.7,0.7-1.4,0.3-2.4h0.7C296.4,190.3,296.8,189.3,296.4,188.3z
				 M294.7,177.4c0.7-0.3,1-1.4,1-2.1c2.8-6.3,5.6-12.9,8-19.2c1-2.1,1.7-4.2,2.1-6.3l-1,1c-0.7,2.1-1.4,3.8-2.1,5.6
				c-2.4,5.2-4.2,10.8-6.6,16c-0.3,1-0.7,2.4-1.4,3.5V177.4z M298.2,184.4v0.3C298.5,184.8,298.2,184.4,298.2,184.4z M298.9,181.3
				c0,0.3,0.3,0.3,0.3,0.7v-0.3c0.3-0.7,0.7-1,0.7-1.4L298.9,181.3z M300.6,178.1c-0.3,0.3-0.3,0.7-0.3,1.4
				C300.3,178.8,300.3,178.5,300.6,178.1z M302.4,172.6v0.7l0.3-0.3c0.7-1,1-1.7,1.4-3.1C303,170.5,302.7,171.5,302.4,172.6z
				 M304.1,169.1v0.3l0.3-0.3H304.1z M304.8,165.9c0,0.3,0,0.3,0.3,0.3v-0.3H304.8z M305.8,164.2c-0.3,0.3-0.3,0.7-0.3,1
				C305.8,164.9,305.8,164.5,305.8,164.2c1-1,1.4-1.7,1.4-3.1C306.2,161.8,305.8,162.8,305.8,164.2z M306.2,149.2
				c0.7-0.7,1-1.7,1-2.4C306.2,147.1,305.8,148.2,306.2,149.2z M307.2,160.7l0.7-0.7C307.6,160,307.2,160.4,307.2,160.7z
				 M307.6,146.1c0.3-0.3,0.3-1,0.3-1.4C307.6,145,307.2,145.4,307.6,146.1z M318.7,147.1v0.3c-0.7,0.7-0.7,1.4-0.7,2.1
				c0.3-0.7,0.3-1.4,0.7-2.1C318.7,147.5,319.1,147.5,318.7,147.1z M320.5,218.6l0.3-0.3c0,0,0-0.3,0.3-0.3c-0.3,0-0.3,0-0.7,0.3
				V218.6z M321.9,215.8c0,0.3,0,0.3,0,0.7c0-0.3,0.3-0.7,0.3-0.7H321.9z M324.7,210.9c0.3-0.3,0.7-0.7,0.7-1L324.7,210.9z"/>
			<path class="st0" d="M428.9,190.7c0,1-0.3,1.7-0.7,2.4c-0.7,1.7-1.4,3.1-2.4,4.5L415,214.4c-3.5,5.6-7,10.8-10.5,16
				c-3.8,5.9-8.4,11.9-13.3,17.4l-3.1,3.5c-1.4,1-2.8,2.1-4.2,3.1c-1.4,1-3.1,1.4-4.9,1c-2.1-0.7-4.2-1.4-5.9-2.4
				c-3.1-1.4-5.6-3.8-6.3-7.7c-0.3-1-0.7-2.1-0.7-2.8c0-0.3-0.3-0.3-0.7-0.3l-1,1c-2.1,3.1-4.2,5.9-6.6,8.7
				c-2.8,2.8-5.9,5.6-9.4,7.3c-2.1,1-4.5,1.7-7,0.7c-1.7-0.7-3.8-1-5.6-1.7c-2.8-0.7-4.9-2.8-7-4.5c-1.4-1.4-2.4-3.1-2.8-4.9
				c-1.7-5.9-2.1-12.2-1.4-18.5c0.3-4.2,1-8.7,2.4-12.9c1.7-7.7,4.2-15.3,7.7-22.7c4.5-10.5,10.5-19.9,18.1-28.6
				c2.4-2.8,5.2-5.6,8-8.4c2.8-2.8,6.3-5.2,9.8-7c3.8-2.1,8.4-3.5,12.6-4.2c3.5-0.3,6.6,0,9.8,1.4c3.5,1.4,6.6,3.1,9.8,5.6
				c2.4,2.1,4.5,4.2,5.6,7.3c1,1.7,1.7,3.8,2.4,5.9c1,2.8,0.7,5.9,0,8.7c-1,2.8-1.7,5.2-3.5,7.7c-0.3,0.3-0.3,1,0,1.4
				c0,0.3,0,0.7,0.3,1c1,1.4,0.7,2.8-0.3,4.2c-3.1,5.6-6.3,10.8-9.4,16c-3.5,5.6-6.3,11.2-9.1,17.1c-2.4,5.2-4.9,10.8-6.6,16.4
				c-0.3,0.3-0.7,1-0.7,1.7v0.7c0.3,0,0.3,0,0.3,0c0.7-0.7,1.4-1,1.7-1.7c7-7,13.2-14.3,18.8-22.3c5.2-7.7,10.5-15.3,15.7-23.4
				l3.1-4.5c0.3-1,1-2.1,2.1-2.8h0.7c0,0,0,0,0,0.3c0,1,1.7,0.3,1.7,1.4c0.7,0,1-0.3,1.4,0C428.2,188.9,428.6,189.6,428.9,190.7z
				 M382.9,193.8c2.1-3.1,4.2-5.9,7-8.7c1.4-1.4,3.1-2.8,4.9-3.8c1.4-1,2.4-2.1,3.1-3.8c0.7-2.1,1.7-3.8,2.4-5.9
				c0.3-0.3,0.7-0.7,1.7-0.3c2.1,0.7,3.8,0,4.2-2.4c1-3.1,0-4.9-2.1-6.3c-0.3-0.3-1-0.7-1.7-1c-2.8-1-5.6-1.7-8.4-1.4
				c-4.9,0.7-9.1,2.8-12.9,5.2c-3.5,2.4-6.3,4.9-8.7,7.7c-4.9,5.2-9.1,10.8-12.9,17.1c-5.2,8.4-9.4,17.4-12.2,26.8
				c-1.7,4.9-3.1,10.1-4.5,15.3c-0.7,3.5-1.7,7.3-1.7,11.2c0,0.3-0.3,1,0,1.4c0,0.3,0.3,0.7,0.3,0.7h0.7c0.7-0.7,1.7-1.4,2.4-2.1
				c4.2-4.5,8.4-9.1,12.2-13.9c5.2-7.3,10.8-14.6,16.4-22C376.3,202.9,379.4,198.4,382.9,193.8z M347.7,181.3c0.3,0,0.3-0.3,0.3-1
				C348,180.6,348,180.9,347.7,181.3z M350.5,177.4c0.3-0.3,1-1,1-1.7C350.8,176,350.5,176.7,350.5,177.4z M352.2,190.7
				c0.3,0,0.3,0,0.3,0c0.3-0.3,0.3-0.3,0.3-0.7c0,0-0.3,0-0.7,0.3V190.7z M352.6,174.7c0.3-0.3,0.7-1,1-1.7
				C352.9,173.6,352.6,174,352.6,174.7z M353.6,188.3c-0.3,0.3-0.3,1-0.3,1.4C353.3,189.3,353.3,188.9,353.6,188.3
				c1-0.3,1.4-1,1.4-2.1c0.7-0.3,1-1,1.4-1.7c-1,0.3-1.4,1-1.4,1.7C354.3,186.5,354,187.2,353.6,188.3z M354,180.2
				c0-0.3,0-0.7,0.3-1C354,179.2,354,179.5,354,180.2z M356.4,184.1c1.4-1.4,2.1-2.1,2.4-3.8C357.4,181.3,356.7,182.7,356.4,184.1z
				 M359.2,180.2c0,0,0.3,0,0.3-0.3l4.2-5.2v-0.3c0.3,0,0.3,0,0.7-0.3c1-1.4,2.8-2.4,3.1-4.5c0.7,0,0.7,0,0.7-0.7
				c0.7,0,0.7,0,0.7-0.3c-0.3,0-0.7,0-0.7,0.3c-0.3,0-0.3,0.3-0.7,0.7c-1.7,1-2.8,2.8-3.8,4.5v0.3c-0.3,0-0.3,0-0.7,0.3
				C361.6,176.4,359.9,177.8,359.2,180.2z M368.9,168c0.3,0,0.7,0,0.7-0.3C369.3,167.7,368.9,167.7,368.9,168z M369.6,167.3
				c0.3,0,0.7,0,0.7-0.3c0.3-0.3,0.7-0.3,0.7-0.7c0.3-0.3,0.7-0.3,0.7-0.7c-0.3,0-0.3,0.3-0.7,0.7c-0.3,0-0.7,0-0.7,0.7
				C370,167,369.6,167,369.6,167.3z M371.7,165.2c0.3,0,0.3,0,0.7-0.3C372.1,164.9,372.1,165.2,371.7,165.2z M410.4,213
				c-1,0.7-1.4,1.7-2.1,2.4l-10.5,14.6c-1.7,2.8-3.8,5.2-6.6,7.3c-1,0.7-2.4,2.1-3.5,3.5c-0.3,0.3-0.7,1-0.7,1.7v0.3
				c0.3,0.3,0.7,0.3,0.7,0.3c0.7-0.7,1-1,1.7-1.4c2.8-2.4,4.9-5.6,7.3-8.4c2.4-2.8,4.2-5.9,6.6-8.7c0.3-0.7,1-1.4,1.7-1.7v1.4
				c0.7-0.7,1-1.4,1.4-2.1c0.3-0.7,0.7-1,1.4-1.7c-0.7,0.3-1,0.3-1.4,0.3c0.3-1.4,1-2.8,2.1-3.8C409.4,215.8,410.4,214.7,410.4,213z
				 M391.6,205c-0.3,0.3-0.3,0.7-0.3,1C391.6,205.7,391.6,205.3,391.6,205z M392.3,203.6c0,0.3-0.3,0.7-0.3,1
				C392.3,204.6,392.3,203.9,392.3,203.6z M393.7,201.8c-0.7,0.3-1,1-1.4,1.4C393.4,203.2,393.4,202.5,393.7,201.8z M394.4,200.5
				c-0.3,0.3-0.7,0.7-0.3,1.4C394.4,201.5,394.4,200.8,394.4,200.5z M395.1,231.1c0.7-0.7,1-1,1.4-1.7
				C395.8,229.7,395.4,230.1,395.1,231.1z M397.9,227.7c0.7-0.3,1-1,1-1.7C398.2,226.3,397.9,227,397.9,227.7z M400,224.9
				c0.7-0.3,1-0.7,1-1.7c1.4-0.3,1.7-1.4,2.1-2.4c-1,0.3-1.7,1-2.1,2.4C400.3,223.5,400,224.2,400,224.9z M403.1,187.9
				c0,0.3-0.3,0.3-0.3,0.7v0.3c0,0,0-0.3,0.3-0.3V187.9z M403.1,220.3c0.7-0.3,1.4-1,1.4-1.7C403.8,218.9,403.5,219.6,403.1,220.3z
				 M406.6,221v1.4c-0.7,0.3-1,0.3-1.4,0.7C405.2,222.1,405.9,221.4,406.6,221z M405.9,216.1c0.7-0.3,1-1,1-1.7
				C406.6,215.1,405.9,215.4,405.9,216.1z M408.3,219.3c-0.3,0.3-0.3,0.7-0.3,1C408.3,220,408.3,219.6,408.3,219.3z M409.7,217.2
				c-0.3,0.3-0.3,0.7-0.3,1C409.4,217.9,409.7,217.5,409.7,217.2z M413.2,209.2c-1.4,1-2.4,2.1-2.4,3.8
				C412.2,212,412.9,210.9,413.2,209.2z"/>
			<path class="st0" d="M517.3,185.8c0,1.4-0.7,2.4-1.4,3.5l-4.2,8.4c-2.1,3.5-4.2,7.3-6.3,10.8c-1,2.1-2.4,3.8-3.8,5.9
				c-2.8,4.5-5.6,8.7-8.7,13.2c-2.4,4.2-5.2,8.7-8,12.9l-5.2,7c-1,1.4-2.4,2.8-3.8,3.8c-0.7,1-1.7,1.4-3.1,1c-1.7,0-3.1-0.3-4.9-0.3
				c-1.7-0.3-3.1-1.4-4.5-2.1c-1-1-1.7-2.1-2.1-3.5c-0.7-2.1-1.4-4.2-1.4-6.6c-0.3-3.5-0.3-6.6,0-10.1c1-8.4,3.1-16.4,5.6-24.4
				c2.4-9.8,6.3-19.5,9.4-28.9c1.4-4.2,3.1-8.4,4.5-12.9c0.3-0.7,0.3-1.7,0.7-2.8c0,0,0-0.3-0.3-0.3h-0.3c-0.7,0.7-1.7,1.4-2.4,2.1
				c-4.5,4.2-8.7,9.1-12.6,13.9c-2.4,3.5-4.9,7-7,10.8c-3.5,5.9-7,11.5-10.1,17.4c-2.1,3.1-3.5,6.3-5.2,9.8
				c-4.2,8.7-8,17.4-12.2,26.2l-3.1,6.6c-0.7,0.7-1,1.4-1.7,2.4c-2.4,3.1-3.1,3.1-7,2.8c-1.4,0-2.4-0.3-3.8-0.3
				c-1.7-0.3-3.1-1.4-4.5-2.4c-1-0.7-1.4-1.7-1.7-3.1l-1-5.9c-0.7-6.6-0.7-13.6,0.3-20.6l1-9.4c1-6.6,2.8-13.2,4.9-19.5
				c3.8-12.6,8-25.1,12.9-37c0.7-2.8,2.1-5.2,3.1-7.7c0.7-1,1.4-2.1,2.4-2.8c1-0.7,2.1-1,3.1-0.7c0.3,0.3,1,0.3,1.4,1
				c0.7,0.3,1,0,1.4,0c0.3-0.3,0.7-0.3,1,0c0,0,0.3,0.7,0.7,0.7c1-0.3,1.4,1,2.1,0.7c1,0,1.4,1.4,2.4,1c0,0,0.7,0.3,0.7,0.7
				c0,1,0.7,1.4,1.4,2.1c1,0.7,1.7,1.7,2.1,2.8c0.3,0.3,0.3,1,0.3,1.4c0.3,1.4,0,3.1-0.3,4.5l-6.3,17.4c-3.8,10.8-8,22-11.9,33.1
				c-2.1,6.3-3.8,12.6-5.9,19.2c-0.3,0.7-0.3,1.7-0.3,2.8c1-0.3,1-1.4,1.7-2.1c2.8-4.9,5.2-10.1,7.7-15.3
				c6.3-13.3,13.9-25.8,22-38.4c4.9-7.3,10.8-14.3,17.4-20.6c2.4-2.1,4.9-3.8,7.7-5.9c2.4-1.7,5.6-2.1,8.4-1.4
				c3.5,0.7,5.9,2.4,8,5.2c0.3,0.7,1,1.4,1.4,2.4c0.3,0.7,0.7,1.4,0.7,2.4c0.3,3.1,0.3,6.3-0.3,9.4c-1.4,8-3.8,15.3-5.9,22.7
				c-3.1,9.8-6.3,19.5-9.8,28.9c-1.7,5.9-3.8,11.5-5.6,17.1c-0.3,0.7-0.7,1.4-0.7,2.4h0.3c0.7-0.7,1.4-1.4,2.1-2.1
				c1.7-2.8,3.8-5.9,5.9-8.7l8.4-12.2c4.2-6.6,7.7-12.9,11.5-19.5c1.7-2.8,3.5-5.9,5.2-9.1c0-0.7,0.3-1,0.7-1.4
				c0.3-0.3,1-0.7,1.7-0.7c1.7,0,3.1,0.3,4.5,1C517,185.1,517.3,185.5,517.3,185.8z M414.8,205.3c0,0-0.3,0-0.3-0.3v0.3
				c0,0,0,0,0,0.3C414.5,205.3,414.5,205.3,414.8,205.3z M417.2,194.9c0,0.7-0.3,1-0.7,1.7C417.2,196.3,417.2,195.9,417.2,194.9z
				 M418.3,191.7v0.7c-0.3,0.7-0.7,1-1,2.1c1-0.3,0.7-1.4,1-2.1C418.3,192.1,418.6,192.1,418.3,191.7z M420,186.9l-0.7,1
				c0,0.3-0.3,0.7-0.3,1v0.3c0.3-0.3,0.3-0.3,0.3-0.3v-1C419.7,187.6,420,187.2,420,186.9z M419.3,205.7H419v0.3
				C419,206,419.3,206,419.3,205.7z M420.4,185.8v0.3C420.4,186.2,420.7,186.2,420.4,185.8z M420.7,199.4c0.3-0.3,0.7-1,1-1.4
				C421.1,198.4,421.1,199.1,420.7,199.4c0,0.3-0.3,0.3-0.3,0.7s0,0.3,0.3,0.3v-0.3V199.4z M427.4,197c1.7-4.5,3.1-9.1,4.9-13.6
				c0.7-1.7,1.4-3.1,1.4-4.9c0.7-0.7,0.7-1.4,0.7-2.1c0-0.3,0.3-0.3,0.3-0.3c0-0.3,0-0.3-0.3-0.7v0.3c0,0.3,0,0.3,0,0.7
				c-1,0.3-0.7,1-0.7,2.1c-0.3,0.7-1,1-1,1.7c-1,2.1-1.7,4.2-2.4,6.3c-2.4,6.6-4.5,12.9-6.6,19.5c-0.3,1-0.7,1.7-0.7,2.8
				c-0.7,2.1-1.4,4.5-1.7,6.6v0.7c0.3-0.3,0.3-0.3,0.3-0.3c0-0.3,0.3-0.7,0.3-1C423.9,208.8,425.6,202.9,427.4,197z M424.2,189.3
				c0,0,0.3,0,0.3-0.3v-0.3C424.2,188.9,424.2,188.9,424.2,189.3z M426,231.1c4.5-8,8.7-16,12.6-24.4c-1,0-1.4,0.7-2.1,1.7l-3.5,6.3
				c-2.1,4.2-4.2,8.4-6.3,12.9c-1,1.7-1.7,3.8-2.4,5.9C425.3,232.9,425.6,232.2,426,231.1z M427.4,237.8c0,0.3-0.3,0.3-0.3,1
				C427.4,238.5,427.4,238.1,427.4,237.8z M428.7,235c0,0.3-0.3,1-0.7,1.4C428.4,236,428.7,235.7,428.7,235z M435.4,173.3v-0.3
				C435.4,172.9,435,172.9,435.4,173.3z M435.7,172.6c0.3-0.3,0.3-1,0.3-1.4C435.7,171.5,435.7,172.2,435.7,172.6z M436.4,170.5v0.3
				C436.4,170.8,436.8,170.8,436.4,170.5z M437.1,167.7c0.3,0.3,0.3,0,0.3-0.3c0,0,0-0.3,0.3-0.3v-0.3l-0.3,0.3c0,0,0,0.3-0.3,0.3
				V167.7z M439.9,161.1c0,0.3,0,0.3,0,0.3V161.1z M466.1,221.7c-0.3,0.3,0,0.7,0,0.3V221.7z M467.5,216.8c-0.3,0.3-0.3,0.3-0.3,0.7
				v0.3c0,0.3-0.3,0.7-0.3,0.7v0.3c0.3-0.3,0.3-0.7,0.3-1c0.3,0,0.3-0.3,0.3-0.3v-0.3V216.8z M468.1,213.4c-0.3,0-0.3,0.3-0.3,0.3
				s0.3,0,0.3,0.3V213.4z M469.5,208.1c1-0.3,0.7-1,1-2.1C469.9,206.4,469.9,207.4,469.5,208.1c-0.3,0.7-0.3,1.7-0.3,2.4
				c-0.7,0.7-0.7,1.4-1,2.4c1-0.7,0.7-1.7,1-2.4C469.5,209.9,469.5,209.2,469.5,208.1z M470.2,222.4c0,0.3-0.3,0.3-0.3,0.7
				c0.3,0,0.3-0.3,0.3-0.3V222.4z M485.9,188.9c0.7-2.1,1.7-3.8,1.7-6.3c-0.3,0.3-0.3,0.3-0.3,0.7c-1.4,3.8-3.1,8-4.2,11.9
				c-3.5,10.1-7,20.2-9.4,30.3l-0.7,2.8c-1,1.4-1,3.1-1.4,4.5l-0.7,2.8c0,0.3-0.3,0.7-0.3,0.7c0,0.3,0,0.3,0.3,0.7v-0.7
				c0-0.3,0-0.3,0-0.7c0.7-0.7,0.7-1.7,0.7-2.8c1-1.4,1.4-2.8,1.4-4.5c1-0.7,1-1.7,1.4-2.4L485.9,188.9z M470.9,203.6
				c-0.3,0.7-0.3,1.4-0.3,2.1C470.9,205,470.9,204.3,470.9,203.6c0.7-0.3,0.7-1,1-1.7c0-0.7,0.3-1.4,0.3-2.1
				c-0.7,0.3-0.7,1.4-0.3,2.1C470.9,202.2,471.3,202.9,470.9,203.6z M470.6,220c0.3-0.3,0.3-0.3,0.7-0.3h-0.3
				C470.6,219.6,470.6,220,470.6,220z M474.8,206c-0.3,0.3-0.3,1-0.3,1.7c-0.7,0.7-0.7,1.4-0.7,2.1c-0.7,0.7-0.7,1.4-0.7,2.4
				c-0.3,0.7-0.7,1-0.7,1.7c-0.3,0.3-0.3,0.3-0.3,0.7v0.3l0.3-0.3v-0.7c0.7-0.3,0.7-1,0.7-1.7c0.7-0.7,0.7-1.7,0.7-2.4
				c0.7-0.7,0.3-1.4,0.7-2.1C475.1,207.1,475.1,206.7,474.8,206z M472.7,197.7c-0.3,0.7-0.3,1-0.3,1.7l0.7-1c1-2.8,1.7-5.6,2.8-8.4
				l0.7-2.8c-0.3,0-0.3,0.3-0.7,0.7L472.7,197.7z M476.2,201.8c-0.3,0.7-0.3,1-0.3,1.7c-0.7,0.3-0.7,1-0.7,1.7
				c0.7-0.7,0.7-1,0.7-1.7C476.2,202.9,476.5,202.5,476.2,201.8z M476.9,185.8c-0.3,0.3-0.3,0.7-0.3,1
				C476.9,186.5,476.9,186.2,476.9,185.8z M478.3,194.9c-0.7,2.1-1.7,4.2-1.7,6.3c0.3,0,0.3,0,0.3-0.3c0.7-2.1,1.4-3.8,1.7-5.6
				c0.3-0.3,0-0.3,0-0.7C478.6,194.9,478.3,194.9,478.3,194.9z M477.2,185.1l0.7-1c0-0.3,0-0.7,0.3-0.7V183l-0.3-0.3v0.7
				c0,0,0,0.3,0,0.7C477.2,184.4,477.2,184.8,477.2,185.1z M480.4,235.3c-0.7,0.3-1,1-1.4,1.7C479.7,236.7,480.4,236,480.4,235.3z
				 M479.3,178.5c0,0.3,0,0.3,0,0.7v-0.3V178.5z M479.3,192.1v0.3l0.3-0.3H479.3z M480,242.6l0.7-1c-0.3,0-0.7,0.3-1,0.7v0.3
				C480,242.6,480,243,480,242.6z M480,189.6c0,0,0.3,0,0.3,0.3v-0.3c0-0.3,0-0.3,0-0.3L480,189.6z M487,232.9c-1,0.3-1.7,1-2.4,2.1
				l-2.1,2.8l-0.3-0.3c0-0.3-0.3-0.3-0.3,0s0,0.3,0.3,0.3h0.3c-0.3,1-0.7,1.7-1,2.8C483.5,238.8,485.9,235.7,487,232.9z M488,182
				c0.7-1,0.7-2.1,1.4-3.5c0-0.7,0-1.7,0.3-2.4c0.7-0.7,0.3-1,0.7-2.1c-0.7,0.3-0.3,1.4-0.7,2.1c-0.7,0.7-0.7,1.7-0.3,2.4
				c-0.3,0.3-0.7,0.7-1,0.7C488,180.2,487.7,180.9,488,182z"/>
			<path class="st0" d="M580.6,136.6c-0.7,0.3-1.4,0.7-1.7,0.7c-1.7,0.3-3.8,0.3-5.6,0.3c-2.8-0.3-5.6,0-8.4,0c-3.1,0-6.6,0.7-9.8,1
				c-1.4,0-2.1,0.7-2.8,2.1c-0.3,1.7-1,3.8-1.7,5.6c-2.1,6.3-4.2,12.2-6.6,18.1l-5.2,15c-4.2,11.5-8.7,23-12.9,34.5
				c-3.1,8.4-5.9,17.1-8.4,25.5c-1.4,5.2-3.1,10.5-4.2,16c-0.3,0.7-0.3,1.4-0.3,2.1c0,0.3,0.3,0.3,0.3,0.3c0.3,0,0.7,0,0.7-0.3
				c0.7-0.3,1-0.7,1.4-1c5.9-5.9,11.2-12.2,15.7-19.2c2.4-3.8,5.2-7.7,7.7-11.9c1.4-1.7,2.4-3.5,3.5-5.6c4.9-9.4,10.5-18.5,16-27.5
				c1-1.7,1.7-3.1,2.8-4.5c0.3-0.7,0.7-1,1-1.4c0.3-0.3,0.7,0,0.7,0.3c-0.3,0.3-0.3,0.3-0.3,0.7c0-0.3,0.3-0.3,0.3-0.7
				c4.2,0.7,4.9,0.7,2.4,5.2c-3.8,6.3-7.7,12.6-11.5,19.2l-4.5,8.4c-6.3,12.6-13.2,24.4-20.9,35.9c-2.4,3.8-5.2,7.3-8.4,10.5
				c-0.7,0.7-1.4,1.4-2.4,2.1c-1.7,1.4-4.2,2.1-6.6,1.7c-1-0.3-2.1-0.3-3.1-0.3c-2.4-0.3-4.5-1.4-6.6-2.8c-1.7-1-2.4-2.4-3.1-4.2
				c-2.1-4.9-3.1-9.8-3.1-14.6c0-4.9,0.3-9.8,1-14.3c1-8,2.8-16,4.9-24.1c2.4-8.4,5.2-16.7,8.4-24.8c2.8-6.6,5.2-13.3,8-19.5
				c1.4-4.2,3.5-8.4,5.2-12.6c1-2.8,2.4-5.2,3.5-8c0.3-0.7,0.3-1,0.3-1.4c0.3-0.7,0-1-0.7-1c-1.4,0-2.4,0-3.8,0.3H521
				c-3.8,1-7.3,0.3-10.8-1.7l-5.2-2.8c-1.4-0.7-2.8-1.4-3.1-3.1c-1-0.3-1-1.7-1.7-2.1c-1.7-1.4-1.4-3.5,0-4.5c0.7-0.3,1.7-1,3.1-1
				c1-0.3,2.4-0.3,3.8-0.7c3.1,0,6.6-0.3,9.8-0.7c1.7,0,3.5-0.3,5.2-0.3l11.2-1c0.7,0,1.4-0.3,1.7-1.4c2.1-4.5,3.8-9.1,5.9-13.9
				c2.8-6.6,5.9-13.2,8.7-19.9l2.8-5.2c0.3-0.7,1-1,1.4-1.7c1-0.7,1.7-1,2.8-0.3c1.7,0.7,3.8,1.4,5.2,2.4l1.4,1.4
				c1,1.7,1.7,3.5,2.4,5.2c0.7,1.7,0.7,3.5,0.3,5.2c-1,4.5-1.7,8.7-3.1,12.9c-1.4,4.2-2.4,8-3.5,11.9c-0.3,0.7-0.3,1-0.3,1.7
				c0,0,0,0.3,0.3,0.3c0.7,0.3,1.4,0.3,2.1,0.3c5.2,0,9.8,1.7,14.3,4.5c2.1,1,3.5,2.4,4.5,4.2l1,2.4
				C582,135.6,581.6,136.3,580.6,136.6z M501.8,231.8c-0.3,0.3-0.3,0.3-0.3,0.7v0.3c0.3-0.3,0.3-0.3,0.3-0.3V231.8z M506,215.1
				c2.1-7,4.5-13.6,7-20.6c1.4-4.2,3.1-8,4.5-12.2c0.3-1.4,1.4-2.8,1.4-4.5c-1,0.3-1,1-1.4,1.7c-1.7,5.2-3.8,10.1-5.6,15.3
				c-2.8,7-4.9,13.9-7,21.3c-0.7,2.8-1,5.6-1.7,8c-0.3,1-0.3,2.1-0.3,3.1c-0.7,0.3-0.7,0.7-0.7,1.4v0.3c0.3,0,0.3,0,0.3-0.3
				c0.3-0.3,0.3-1,0.3-1.4c0.3-1,0.3-2.1,0.3-3.1c0.7-0.3,0.7-0.7,0.7-1.4L506,215.1z M507,232.5c-0.3,0-0.3,0-0.3,0.3l0.3,0.3
				c-0.3,0.3-0.7,0.3-0.7,0.7v0.7c0-0.3,0.3-0.3,0.3-0.3c0-0.3,0-0.7,0.3-1v-0.3V232.5z M507.7,228.7c0.3-0.3,0.3-1,0.3-1.4
				c0.7-0.7,0.7-1.4,0.7-2.4c0,0,0.3-0.3,0.3-0.7v-0.7c0,0.3-0.3,0.3-0.3,0.7v0.7c-0.7,0.7-0.7,1.7-0.7,2.4
				c-0.7,0.3-0.7,0.7-0.7,1.4H507.7z M540.9,153.7c0.7-1.4,1-2.8,1.4-3.8c0,0-0.3,0-0.7,0.3l-1,2.1c-1,2.4-1.7,5.2-3.1,7.7
				c-2.4,5.2-3.8,10.8-6.3,16l-5.2,14.3c-0.3,0.7-0.7,1.4-1,2.4c-1.7,4.2-3.1,8.4-4.5,12.6c-2.1,5.2-3.8,10.5-5.2,15.7
				c-1.4,3.8-2.4,8-3.5,11.9c-1,4.9-2.4,9.8-3.1,14.6c0,0.7,0,1.4-0.3,1.7c0,0.3,0.3,0.3,0.3,0.7c0-0.3,0.3-0.7,0.3-0.7
				c0-0.7-0.3-1-0.3-1.7c0.3-0.3,0.7-0.7,0.7-1c0.7-2.1,1.4-4.2,1.7-6.3c2.1-7.3,3.8-14.6,6.6-22l5.2-15.7
				c2.1-5.2,3.8-10.5,5.9-15.7c2.4-6.3,4.5-12.9,7-19.2C537.7,163.1,539.1,158.3,540.9,153.7z M509.8,220.3V220
				C509.8,220.3,509.5,220.3,509.8,220.3z M520.6,188.3c1-1,1.4-1.7,1.4-3.1C521.3,185.8,520.6,186.9,520.6,188.3
				c-0.7,0.7-1,2.1-1.4,3.1c-0.3,0.7-0.3,1.4-0.3,2.4c-1.7,2.1-2.4,4.5-2.8,7v0.3c0,0-0.3,0-0.3,0.3c-1.4,3.1-2.4,6.3-3.5,9.1
				c0,1,0,1.7-0.3,2.4c-1,2.1-1.4,4.2-2.1,6.6c0.3-0.3,0.7-0.3,0.7-0.7c0.7-2.1,1.7-3.8,1.4-5.9c0.3-0.3,0.7-0.3,0.7-0.7l3.1-9.1
				c0.3-0.7,0.3-1.4,0.3-2.1c1.4-2.1,2.1-4.5,2.8-7.3c0.7-0.7,0.7-1.4,0.3-2.4h0.7C520.6,190.3,521,189.3,520.6,188.3z M518.9,177.4
				c0.7-0.3,1-1.4,1-2.1c2.8-6.3,5.6-12.9,8-19.2c1-2.1,1.7-4.2,2.1-6.3l-1,1c-0.7,2.1-1.4,3.8-2.1,5.6c-2.4,5.2-4.2,10.8-6.6,16
				c-0.3,1-0.7,2.4-1.4,3.5V177.4z M522.4,184.4v0.3C522.7,184.8,522.4,184.4,522.4,184.4z M523.1,181.3c0,0.3,0.3,0.3,0.3,0.7v-0.3
				c0.3-0.7,0.7-1,0.7-1.4L523.1,181.3z M524.8,178.1c-0.3,0.3-0.3,0.7-0.3,1.4C524.5,178.8,524.5,178.5,524.8,178.1z M526.6,172.6
				v0.7l0.3-0.3c0.7-1,1-1.7,1.4-3.1C527.3,170.5,526.9,171.5,526.6,172.6z M528.3,169.1v0.3l0.3-0.3H528.3z M529,165.9
				c0,0.3,0,0.3,0.3,0.3v-0.3H529z M530,164.2c-0.3,0.3-0.3,0.7-0.3,1C530,164.9,530,164.5,530,164.2c1-1,1.4-1.7,1.4-3.1
				C530.4,161.8,530,162.8,530,164.2z M530.4,149.2c0.7-0.7,1-1.7,1-2.4C530.4,147.1,530,148.2,530.4,149.2z M531.4,160.7l0.7-0.7
				C531.8,160,531.4,160.4,531.4,160.7z M531.8,146.1c0.3-0.3,0.3-1,0.3-1.4C531.8,145,531.4,145.4,531.8,146.1z M542.9,147.1v0.3
				c-0.7,0.7-0.7,1.4-0.7,2.1c0.3-0.7,0.3-1.4,0.7-2.1C542.9,147.5,543.3,147.5,542.9,147.1z M544.7,218.6l0.3-0.3
				c0,0,0-0.3,0.3-0.3c-0.3,0-0.3,0-0.7,0.3V218.6z M546.1,215.8c0,0.3,0,0.3,0,0.7c0-0.3,0.3-0.7,0.3-0.7H546.1z M548.9,210.9
				c0.3-0.3,0.7-0.7,0.7-1L548.9,210.9z"/>
		</g>
		<path class="st0" d="M419.3,311.5c-0.8-3.2-3.3-5.3-6.7-7.2c-5.1-2.8-11.6-4.7-17.9-6.4c-7.3-1.6-15.4-3-23.1-3.8
			c-2.3-0.4-4.1-0.7-6.2-0.8c-8.3-0.9-16.7-1.2-24.9-1.3c-2.1-0.1-4.3-0.3-6.2-0.2c-5.1,0-10.6,0.2-15.5,0.5
			c-5.7-0.1-11.4,0.5-17.1,1.1c-5.7,0.6-11,1-16.5,1.8c-5.7,0.6-11.6,1.6-17,2.6c-7.7,1.3-14.8,2.8-22.2,4.6
			c-7.1,1.4-13.9,3.4-20.7,5.3c-5.4,1.7-10.4,3.3-15.2,5.1c-6.4,2.4-12.8,4.8-18.7,7.3c-5.4,2.4-10.3,4.8-15,7.5
			c-7.3,4-26.2,16.1-26.5,17c2.5,3.4,6.1,6.5,10.5,9.1c0-0.2,0-0.5,0.1-0.7c0.6-2.7,48.1-19.1,56.2-21.8c5.4-1.7,11-3.2,16.7-5.1
			c1-0.1,2.2-0.5,3.2-0.6c8.6-2.3,17.5-4.1,26.4-5.9c14-2.5,28.2-4.7,42.3-5.6c11.4-1.2,22.8-1.7,34.5-1.7c9.2,0,18.7,0.5,28,1.4
			c6,0.6,12,1.1,18,2.3c1.5,0.4,3.1,0.7,4.7,1c9.5,1,18.6,3,27.4,5.4c0.7-1,1.1-2.1,1.3-3.3C419.9,316.6,420.1,314,419.3,311.5z
			 M342.3,301.6l-10.6,0.2c-8,0.2-16.4,0.6-24.5,1.4c-8.9,1.1-17.5,1.9-26.4,3c-2.9,0.2-5.5,0.8-8.3,1.2c-1.4,0.2-2.9,0.2-4.3,0.4
			l-0.2-0.2c-0.4,0.2-0.2-0.2,0.4-0.2c0.4-0.2,0.8-0.3,1.4-0.2l14-2.5c1.4-0.2,2.8-0.4,4.1-0.6l4.7-0.5c4.5-0.8,8.9-1.1,13.8-1.4
			c6.7-0.6,13.5-1,20.2-1c4.5-0.1,9.2,0,13.3,0C340.9,301.2,341.5,301.3,342.3,301.6z M334,296.6c1.2,0.2,2.1,0.1,3.1,0.1
			c-1,0.7-2.6,0.7-3.5,0.1L334,296.6z M329.5,296.7c0.4-0.2,0.6,0.1,0.8,0.3l1.2-0.5c0.6,0.1,1-0.1,1.4-0.2
			c-0.8,0.3-1.4,0.9-2.6,0.7l-3.5,0.1c-0.4,0.2-0.6-0.1-0.8-0.3C327,296.7,328.4,296.5,329.5,296.7z M257.4,304.8
			c3.2-0.6,6.1-1.4,9.3-1.9l7.7-1.3c8.1-1.5,16.6-2.5,24.6-3.3c7.3-0.5,14.7-0.8,22.4-1.5l1.7,0.3c0.4-0.2,0.6,0.1,0.8,0.3
			c0.6-0.5,1.2-0.5,2-0.8c-0.6,0.5-1,0.7-2,0.8l-2.4,0.3c-8.4,0.4-16.9,1.3-25.5,2.1c-5.1,0.7-10.4,1.1-15.5,1.8
			c-4.5,0.8-9.7,1.4-14.6,2.4c-2.8,0.4-5.3,1.1-8.1,1.5l-4.5,0.8C254.6,305.2,256,305,257.4,304.8z M385.9,310.6l-9.7-1.4
			c-1.7-0.3-3.5-0.6-5.4-0.5c-7.6-0.6-15.3-1.4-23.1-1.6c-5.7-0.1-11.7,0-17.8,0.1l-16.3,0.8c-8.2,0.6-16.1,1.7-24.2,2.5
			c-7.3,0.5-14,1.8-20.9,2.9c-5.9,1-11.7,2.2-18,3.3l-7.1,1.4c-0.4,0.2-0.6-0.1-1.2-0.2l12.7-2.9c4.6-1.4,9.3-1.9,14.1-3.1
			c3-0.8,6.3-1.1,10.1-1.6c0.4-0.2,0.4-0.2,1-0.1c3.8-1.1,7.7-1.3,11.4-1.8c5.1-0.7,10.2-1.4,15.5-1.8c9.2-0.7,18.6-1.1,28.2-1.2
			c7.6,0,15.4,0.1,23,0.7c7.6,0.6,15.3,1.4,22.8,2.7l5.2,0.9c0.2,0.2,0.8,0.3,0.9,0.6C386.9,310.5,386.5,310.7,385.9,310.6z"/>
		<path class="st0" d="M642.6,80c-12.5-16.1-12.8-28.4-12.8-28.4S629.5,63.9,617,80c-6.8,8.8-17.6,20.5-17.6,34.8
			c0,4.6,1,8.9,2.8,12.7c1.1-2.6,2.2-5.1,3.6-7.6c1.7-3.9,3.9-7.5,5.6-11.4c0.4-0.5,0.3-1.1,1.5-1.1c0.1,1.5-1,2.4-1.3,3.4
			c-1.4,3.2-3.2,5.9-4.5,9.1c-1.4,3.1-2.8,6-4.1,9c1.2,2.2,2.6,4.3,4.3,6.1c0.2-0.4,0.2-1,0.1-1.7c1.1-2.1,2.1-4.4,3.5-6.7
			c0-0.3,0.4-0.2,0.4-0.2l0-0.3c0.2-2,0.9-3.8,2.8-5.1c-0.1-0.9-0.1-1.5,0.2-2c0.3-0.8,0.7-1.9,1.4-2.3c-0.1-1.2,0.7-1.9,1.4-2.3
			c0.1,1.2-0.3,1.7-1.4,2.3c0.5,1,0.1,1.8-0.6,2.5l-0.8-0.2c0.5,1,0.5,1.6-0.2,2c-0.6,2.2-1.3,4-2.8,5.4c0,0.6,0.1,1.2-0.3,1.7
			l-3.1,6.8c0,0.2-0.2,0.2-0.5,0.3c1.6,1.7,3.3,3.3,5.2,4.6c1.1-2.9,2.4-5.8,3.9-8.6c1.4-3.2,2.7-6.3,4.5-9.4
			c0.3-0.8,0.7-1.3,1.1-1.8l5.2-10.6c2.5-3.7,3.8-8.1,6.4-11.8c1.5-1.7,2.1-3.8,3.2-5.6l1.1-1.5c0.4-0.2,0.8-0.1,0.8-0.1
			c-0.3,0.8-0.7,1.9-1.4,2.9c-1.8,3.3-3.1,7.1-5.3,10.3c-2.5,4.6-4.5,9.7-7,14.3c-2.1,3.8-3.8,7.8-6,11.6l-4.9,11.3
			c4.5,2.7,9.8,4.3,15.5,4.3c16.8,0,30.4-13.6,30.4-30.4C660.2,100.6,649.4,88.8,642.6,80z M626.4,83.2c0,0.3,0.1,0.9-0.3,1.1
			C625.6,83.5,626,83.4,626.4,83.2z M617.6,114.4l0-0.3C617.6,114.1,618,114.5,617.6,114.4z M618.6,112.3c0-0.3-0.4-0.4-0.5-0.7
			l1.2-0.6c0,0.3-0.4,0.5-0.7,1L618.6,112.3z M614,105.7c0,0.6-0.3,1.4-1.1,1.5l-0.1-1.2c0.8-0.7,1.1-1.8,1.4-2.6
			c2.5-3.7,4.2-8,6.8-11.7c0.7-1.3,1.4-2.6,2.1-4.1l1.2-0.6c-0.3,1.7-1,3.3-2.1,4.7C619.7,96.4,616.9,101.2,614,105.7z M622.1,105.7
			l-0.4,0.2l0-0.6c0.3-0.8,0.7-1.6,1.9-1.9C623.3,104.5,622.9,105,622.1,105.7z M623.6,103.1l0-0.3l0.4,0.1L623.6,103.1z
			 M624.1,100.3l0.4,0.1l0,0.3C624.2,100.6,624.2,100.6,624.1,100.3z M625.7,84.7c0,0.6-0.3,1.4-1.1,1.8
			C624.1,85.5,624.5,84.7,625.7,84.7z M625.3,99.2c0,0.3,0,0.6-0.3,0.8C624.9,99.6,624.9,99.3,625.3,99.2c-0.1-1.2,0.2-2,1.4-2.3
			C626.8,98.1,626.4,98.6,625.3,99.2z M626.7,96.6c0-0.3,0.4-0.5,0.8-0.4L626.7,96.6z M639.5,88.7c-0.4,0.5-0.3,1.1-0.7,1.6
			C638.7,89.7,638.7,89.1,639.5,88.7l0-0.3C639.9,88.8,639.5,88.7,639.5,88.7z"/>
	</g>
</g>
</svg>
